<?xml version="1.0" standalone="no"?>
<!DOCTYPE svg PUBLIC "-//W3C//DTD SVG 20010904//EN"
 "http://www.w3.org/TR/2001/REC-SVG-20010904/DTD/svg10.dtd">
<svg version="1.0" xmlns="http://www.w3.org/2000/svg"
 width="328.000000pt" height="410.000000pt" viewBox="0 0 328.000000 410.000000"
 preserveAspectRatio="xMidYMid meet">

<g transform="translate(0.000000,410.000000) scale(0.100000,-0.100000)"
fill="#000000" stroke="none">
<path d="M1212 3899 c-103 -17 -174 -69 -227 -163 -75 -134 -93 -247 -58 -369
19 -69 91 -156 152 -183 l37 -16 -7 -67 c-5 -36 -19 -156 -33 -266 -52 -413
-58 -487 -53 -610 5 -128 25 -202 89 -330 67 -132 204 -316 358 -480 69 -73
84 -99 77 -135 -3 -14 0 -44 8 -66 10 -27 14 -90 15 -208 0 -143 -3 -172 -16
-187 -22 -24 -31 -104 -14 -124 7 -9 10 -18 7 -22 -4 -3 -46 -12 -94 -19 -268
-40 -436 -161 -379 -272 22 -42 99 -106 172 -142 210 -103 578 -103 789 0 70
34 151 108 172 157 12 31 12 38 -4 71 -39 79 -184 152 -358 180 -97 16 -104
18 -97 37 4 11 7 37 6 59 0 30 -6 44 -29 61 l-28 23 5 179 c4 129 10 189 22
216 8 21 13 44 10 52 -12 29 8 68 60 124 171 182 292 343 361 482 91 180 98
216 92 447 -3 145 -14 270 -41 472 -20 151 -49 392 -66 535 -40 342 -64 493
-81 510 -41 41 -332 72 -544 58 -145 -9 -154 -9 -210 -1 -22 3 -64 2 -93 -3z"/>
</g>
</svg>
